# xmcd
#
# Track frame offsets: 
#        150
#        19080
#        36770
#        64745
#        86352
#        107485
#        125617
#        148492
#        178055
#        193170
#
# Disc length: 2843 seconds
#
# Revision: 1
# Processed by: cddbd v1.5.2PL0 Copyright (c) Steve Scherf et al.
# Submitted via: ExactAudioCopyFreeDBPlugin 1.0
#
DISCID=8d0b190a
DTITLE=Various Artist - Du ca tình yêu
DYEAR=1989
DGENRE=Country
TTITLE0=Anh Đức - Chị tôi
TTITLE1=Tam ca Áo Trắng - Mặt trời bé con
TTITLE2=Quang Linh - Sao em nỡ vội lấy chồng
TTITLE3=Trần Thu Hà - Phố nghèo
TTITLE4=Mỹ Tâm - Tạm biệt chim én
TTITLE5=Quang Linh - Hà Nội những năm 2000
TTITLE6=Anh Đức - Chiếc vòng cầu hôn
TTITLE7=Y Moan - Giấc mơ Chapi
TTITLE8=Nguyên Vũ - Trái tim nhiều ngăn
TTITLE9=Ngọc Tân - Tùy hứng lý qua cầu
EXTD=
EXTT0=
EXTT1=
EXTT2=
EXTT3=
EXTT4=
EXTT5=
EXTT6=
EXTT7=
EXTT8=
EXTT9=
PLAYORDER=
